<?xml version="1.0" standalone="no"?>
<!DOCTYPE svg PUBLIC "-//W3C//DTD SVG 20010904//EN"
 "http://www.w3.org/TR/2001/REC-SVG-20010904/DTD/svg10.dtd">
<svg version="1.0" xmlns="http://www.w3.org/2000/svg"
 width="99.000000pt" height="99.000000pt" viewBox="0 0 99.000000 99.000000"
 preserveAspectRatio="xMidYMid meet">
<metadata>
Created by potrace 1.11, written by Peter Selinger 2001-2013
</metadata>
<g transform="translate(0.000000,99.000000) scale(0.100000,-0.100000)"
fill="#000000" stroke="none">
<path d="M844 912 c-6 -4 -14 -16 -18 -26 -5 -14 -10 -16 -18 -8 -16 16 -48
-3 -48 -28 0 -17 -7 -20 -47 -21 -61 -1 -142 -8 -169 -14 -20 -4 -20 -9 -21
-319 -1 -282 0 -315 15 -321 9 -3 51 -5 94 -4 64 1 78 5 79 18 1 9 3 59 4 111
2 52 4 97 4 100 1 3 25 6 53 8 29 1 56 6 60 10 6 7 11 75 9 134 -1 26 -3 27
-63 30 -52 3 -62 6 -64 23 -7 44 3 52 74 54 108 4 160 9 170 15 6 3 10 35 11
69 0 35 5 76 11 91 7 19 7 33 0 47 -13 23 -58 26 -67 3 -4 -12 -8 -11 -17 8
-12 24 -34 33 -52 20z"/>
<path d="M27 827 c-5 -14 1 -139 7 -145 3 -2 24 -5 48 -5 24 -1 48 -5 53 -9 7
-4 12 -71 13 -168 3 -155 2 -161 -15 -151 -27 14 -47 -2 -41 -33 5 -24 2 -26
-28 -26 -40 0 -52 -16 -30 -38 15 -15 14 -18 -11 -37 -20 -17 -25 -27 -20 -47
7 -28 35 -40 60 -27 11 7 16 3 21 -16 7 -29 49 -60 71 -51 8 3 15 17 15 32 0
26 1 26 18 11 10 -10 28 -17 40 -17 17 0 22 6 22 26 0 21 3 25 18 19 38 -16
58 -16 74 2 15 17 16 22 3 46 -10 20 -15 83 -17 247 -2 121 -1 224 2 229 3 4
30 8 60 7 l55 -1 2 78 c2 73 1 77 -20 78 -12 1 -106 3 -209 5 -134 1 -188 -1
-191 -9z"/>
</g>
</svg>
